<?xml version="1.0" encoding="utf-8"?><svg xmlns="http://www.w3.org/2000/svg" xmlns:xlink="http://www.w3.org/1999/xlink" width="3000" height="2000" preserveAspectRatio="xMidYMid" viewBox="0 0 3000 2000" style="z-index:1;margin-right:-2px;display:block;background-repeat-y:initial;background-repeat-x:initial;background-color:rgb(255, 255, 255);animation-play-state:paused" ><g transform="translate(1500,1000) scale(1,1) translate(-1500,-1000)" style="transform:matrix(1, 0, 0, 1, 0, 0);animation-play-state:paused" ><g transform="matrix(1,0,0,1,2992.948486328125,463.45404052734375)" style="transform:matrix(1, 0, 0, 1, 2992.95, 463.454);animation-play-state:paused" ><path d="M84.717,33.597c0.791-2.503,1.186-5.138,1.186-7.773C85.903,11.594,74.308,0,60.079,0 c-9.881,0-18.445,5.534-22.793,13.702c-1.581-0.527-3.426-0.791-5.138-0.791c-9.486,0-17.128,7.642-17.128,17.128 c0,1.186,0.132,2.372,0.395,3.426C6.719,34.783,0,42.424,0,51.515C0,61.66,8.169,69.829,18.314,69.829h63.373 C91.831,69.829,100,61.66,100,51.515C99.868,42.556,93.281,35.046,84.717,33.597z" fill="#0056f5" transform="scale(0.7700000000000001)" style="transform:matrix(0.77, 0, 0, 0.77, 0, 0);animation-play-state:paused" ></path></g>
<g transform="matrix(1,0,0,1,337.6667175292969,1640.6409912109375)" style="transform:matrix(1, 0, 0, 1, 337.667, 1640.64);animation-play-state:paused" ><path d="M84.717,33.597c0.791-2.503,1.186-5.138,1.186-7.773C85.903,11.594,74.308,0,60.079,0 c-9.881,0-18.445,5.534-22.793,13.702c-1.581-0.527-3.426-0.791-5.138-0.791c-9.486,0-17.128,7.642-17.128,17.128 c0,1.186,0.132,2.372,0.395,3.426C6.719,34.783,0,42.424,0,51.515C0,61.66,8.169,69.829,18.314,69.829h63.373 C91.831,69.829,100,61.66,100,51.515C99.868,42.556,93.281,35.046,84.717,33.597z" fill="#0056f5" transform="scale(0.7700000000000001)" style="transform:matrix(0.77, 0, 0, 0.77, 0, 0);animation-play-state:paused" ></path></g>
<g transform="matrix(1,0,0,1,259.1072998046875,415.0125732421875)" style="transform:matrix(1, 0, 0, 1, 259.107, 415.013);animation-play-state:paused" ><path d="M84.717,33.597c0.791-2.503,1.186-5.138,1.186-7.773C85.903,11.594,74.308,0,60.079,0 c-9.881,0-18.445,5.534-22.793,13.702c-1.581-0.527-3.426-0.791-5.138-0.791c-9.486,0-17.128,7.642-17.128,17.128 c0,1.186,0.132,2.372,0.395,3.426C6.719,34.783,0,42.424,0,51.515C0,61.66,8.169,69.829,18.314,69.829h63.373 C91.831,69.829,100,61.66,100,51.515C99.868,42.556,93.281,35.046,84.717,33.597z" fill="#0056f5" transform="scale(0.7700000000000001)" style="transform:matrix(0.77, 0, 0, 0.77, 0, 0);animation-play-state:paused" ></path></g>
<g transform="matrix(1,0,0,1,1990.723876953125,489.1928405761719)" style="transform:matrix(1, 0, 0, 1, 1990.72, 489.193);animation-play-state:paused" ><path d="M84.717,33.597c0.791-2.503,1.186-5.138,1.186-7.773C85.903,11.594,74.308,0,60.079,0 c-9.881,0-18.445,5.534-22.793,13.702c-1.581-0.527-3.426-0.791-5.138-0.791c-9.486,0-17.128,7.642-17.128,17.128 c0,1.186,0.132,2.372,0.395,3.426C6.719,34.783,0,42.424,0,51.515C0,61.66,8.169,69.829,18.314,69.829h63.373 C91.831,69.829,100,61.66,100,51.515C99.868,42.556,93.281,35.046,84.717,33.597z" fill="#0056f5" transform="scale(0.7700000000000001)" style="transform:matrix(0.77, 0, 0, 0.77, 0, 0);animation-play-state:paused" ></path></g>
<g transform="matrix(1,0,0,1,-97.15241241455078,1384.42138671875)" style="transform:matrix(1, 0, 0, 1, -97.1524, 1384.42);animation-play-state:paused" ><path d="M84.717,33.597c0.791-2.503,1.186-5.138,1.186-7.773C85.903,11.594,74.308,0,60.079,0 c-9.881,0-18.445,5.534-22.793,13.702c-1.581-0.527-3.426-0.791-5.138-0.791c-9.486,0-17.128,7.642-17.128,17.128 c0,1.186,0.132,2.372,0.395,3.426C6.719,34.783,0,42.424,0,51.515C0,61.66,8.169,69.829,18.314,69.829h63.373 C91.831,69.829,100,61.66,100,51.515C99.868,42.556,93.281,35.046,84.717,33.597z" fill="#0056f5" transform="scale(0.7700000000000001)" style="transform:matrix(0.77, 0, 0, 0.77, 0, 0);animation-play-state:paused" ></path></g>
<g transform="matrix(1,0,0,1,-49.49165725708008,436.37164306640625)" style="transform:matrix(1, 0, 0, 1, -49.4917, 436.372);animation-play-state:paused" ><path d="M84.717,33.597c0.791-2.503,1.186-5.138,1.186-7.773C85.903,11.594,74.308,0,60.079,0 c-9.881,0-18.445,5.534-22.793,13.702c-1.581-0.527-3.426-0.791-5.138-0.791c-9.486,0-17.128,7.642-17.128,17.128 c0,1.186,0.132,2.372,0.395,3.426C6.719,34.783,0,42.424,0,51.515C0,61.66,8.169,69.829,18.314,69.829h63.373 C91.831,69.829,100,61.66,100,51.515C99.868,42.556,93.281,35.046,84.717,33.597z" fill="#0056f5" transform="scale(0.7700000000000001)" style="transform:matrix(0.77, 0, 0, 0.77, 0, 0);animation-play-state:paused" ></path></g>
<g transform="matrix(1,0,0,1,252.52420043945312,594.6756591796875)" style="transform:matrix(1, 0, 0, 1, 252.524, 594.676);animation-play-state:paused" ><path d="M84.717,33.597c0.791-2.503,1.186-5.138,1.186-7.773C85.903,11.594,74.308,0,60.079,0 c-9.881,0-18.445,5.534-22.793,13.702c-1.581-0.527-3.426-0.791-5.138-0.791c-9.486,0-17.128,7.642-17.128,17.128 c0,1.186,0.132,2.372,0.395,3.426C6.719,34.783,0,42.424,0,51.515C0,61.66,8.169,69.829,18.314,69.829h63.373 C91.831,69.829,100,61.66,100,51.515C99.868,42.556,93.281,35.046,84.717,33.597z" fill="#0056f5" transform="scale(0.7700000000000001)" style="transform:matrix(0.77, 0, 0, 0.77, 0, 0);animation-play-state:paused" ></path></g>
<g transform="matrix(1,0,0,1,1746.95703125,96.26752471923828)" style="transform:matrix(1, 0, 0, 1, 1746.96, 96.2675);animation-play-state:paused" ><path d="M84.717,33.597c0.791-2.503,1.186-5.138,1.186-7.773C85.903,11.594,74.308,0,60.079,0 c-9.881,0-18.445,5.534-22.793,13.702c-1.581-0.527-3.426-0.791-5.138-0.791c-9.486,0-17.128,7.642-17.128,17.128 c0,1.186,0.132,2.372,0.395,3.426C6.719,34.783,0,42.424,0,51.515C0,61.66,8.169,69.829,18.314,69.829h63.373 C91.831,69.829,100,61.66,100,51.515C99.868,42.556,93.281,35.046,84.717,33.597z" fill="#0056f5" transform="scale(0.7700000000000001)" style="transform:matrix(0.77, 0, 0, 0.77, 0, 0);animation-play-state:paused" ></path></g>
<g transform="matrix(1,0,0,1,1812.732421875,1673.5560302734375)" style="transform:matrix(1, 0, 0, 1, 1812.73, 1673.56);animation-play-state:paused" ><path d="M84.717,33.597c0.791-2.503,1.186-5.138,1.186-7.773C85.903,11.594,74.308,0,60.079,0 c-9.881,0-18.445,5.534-22.793,13.702c-1.581-0.527-3.426-0.791-5.138-0.791c-9.486,0-17.128,7.642-17.128,17.128 c0,1.186,0.132,2.372,0.395,3.426C6.719,34.783,0,42.424,0,51.515C0,61.66,8.169,69.829,18.314,69.829h63.373 C91.831,69.829,100,61.66,100,51.515C99.868,42.556,93.281,35.046,84.717,33.597z" fill="#0056f5" transform="scale(0.7700000000000001)" style="transform:matrix(0.77, 0, 0, 0.77, 0, 0);animation-play-state:paused" ></path></g>
<g transform="matrix(1,0,0,1,1138.4385986328125,1548.40478515625)" style="transform:matrix(1, 0, 0, 1, 1138.44, 1548.4);animation-play-state:paused" ><path d="M84.717,33.597c0.791-2.503,1.186-5.138,1.186-7.773C85.903,11.594,74.308,0,60.079,0 c-9.881,0-18.445,5.534-22.793,13.702c-1.581-0.527-3.426-0.791-5.138-0.791c-9.486,0-17.128,7.642-17.128,17.128 c0,1.186,0.132,2.372,0.395,3.426C6.719,34.783,0,42.424,0,51.515C0,61.66,8.169,69.829,18.314,69.829h63.373 C91.831,69.829,100,61.66,100,51.515C99.868,42.556,93.281,35.046,84.717,33.597z" fill="#0056f5" transform="scale(0.7700000000000001)" style="transform:matrix(0.77, 0, 0, 0.77, 0, 0);animation-play-state:paused" ></path></g>
<g transform="matrix(1,0,0,1,2447.18408203125,1526.3350830078125)" style="transform:matrix(1, 0, 0, 1, 2447.18, 1526.34);animation-play-state:paused" ><path d="M84.717,33.597c0.791-2.503,1.186-5.138,1.186-7.773C85.903,11.594,74.308,0,60.079,0 c-9.881,0-18.445,5.534-22.793,13.702c-1.581-0.527-3.426-0.791-5.138-0.791c-9.486,0-17.128,7.642-17.128,17.128 c0,1.186,0.132,2.372,0.395,3.426C6.719,34.783,0,42.424,0,51.515C0,61.66,8.169,69.829,18.314,69.829h63.373 C91.831,69.829,100,61.66,100,51.515C99.868,42.556,93.281,35.046,84.717,33.597z" fill="#0056f5" transform="scale(0.7700000000000001)" style="transform:matrix(0.77, 0, 0, 0.77, 0, 0);animation-play-state:paused" ></path></g>
<g transform="matrix(1,0,0,1,2549.626953125,1539.2412109375)" style="transform:matrix(1, 0, 0, 1, 2549.63, 1539.24);animation-play-state:paused" ><path d="M84.717,33.597c0.791-2.503,1.186-5.138,1.186-7.773C85.903,11.594,74.308,0,60.079,0 c-9.881,0-18.445,5.534-22.793,13.702c-1.581-0.527-3.426-0.791-5.138-0.791c-9.486,0-17.128,7.642-17.128,17.128 c0,1.186,0.132,2.372,0.395,3.426C6.719,34.783,0,42.424,0,51.515C0,61.66,8.169,69.829,18.314,69.829h63.373 C91.831,69.829,100,61.66,100,51.515C99.868,42.556,93.281,35.046,84.717,33.597z" fill="#0056f5" transform="scale(0.7700000000000001)" style="transform:matrix(0.77, 0, 0, 0.77, 0, 0);animation-play-state:paused" ></path></g>
<g transform="matrix(1,0,0,1,2200.94189453125,1941.9490966796875)" style="transform:matrix(1, 0, 0, 1, 2200.94, 1941.95);animation-play-state:paused" ><path d="M84.717,33.597c0.791-2.503,1.186-5.138,1.186-7.773C85.903,11.594,74.308,0,60.079,0 c-9.881,0-18.445,5.534-22.793,13.702c-1.581-0.527-3.426-0.791-5.138-0.791c-9.486,0-17.128,7.642-17.128,17.128 c0,1.186,0.132,2.372,0.395,3.426C6.719,34.783,0,42.424,0,51.515C0,61.66,8.169,69.829,18.314,69.829h63.373 C91.831,69.829,100,61.66,100,51.515C99.868,42.556,93.281,35.046,84.717,33.597z" fill="#0056f5" transform="scale(0.7700000000000001)" style="transform:matrix(0.77, 0, 0, 0.77, 0, 0);animation-play-state:paused" ></path></g>
<g transform="matrix(1,0,0,1,1443.023193359375,1964.6112060546875)" style="transform:matrix(1, 0, 0, 1, 1443.02, 1964.61);animation-play-state:paused" ><path d="M84.717,33.597c0.791-2.503,1.186-5.138,1.186-7.773C85.903,11.594,74.308,0,60.079,0 c-9.881,0-18.445,5.534-22.793,13.702c-1.581-0.527-3.426-0.791-5.138-0.791c-9.486,0-17.128,7.642-17.128,17.128 c0,1.186,0.132,2.372,0.395,3.426C6.719,34.783,0,42.424,0,51.515C0,61.66,8.169,69.829,18.314,69.829h63.373 C91.831,69.829,100,61.66,100,51.515C99.868,42.556,93.281,35.046,84.717,33.597z" fill="#0056f5" transform="scale(0.7700000000000001)" style="transform:matrix(0.77, 0, 0, 0.77, 0, 0);animation-play-state:paused" ></path></g>
<g transform="matrix(1,0,0,1,2239.986572265625,40.74700927734375)" style="transform:matrix(1, 0, 0, 1, 2239.99, 40.747);animation-play-state:paused" ><path d="M84.717,33.597c0.791-2.503,1.186-5.138,1.186-7.773C85.903,11.594,74.308,0,60.079,0 c-9.881,0-18.445,5.534-22.793,13.702c-1.581-0.527-3.426-0.791-5.138-0.791c-9.486,0-17.128,7.642-17.128,17.128 c0,1.186,0.132,2.372,0.395,3.426C6.719,34.783,0,42.424,0,51.515C0,61.66,8.169,69.829,18.314,69.829h63.373 C91.831,69.829,100,61.66,100,51.515C99.868,42.556,93.281,35.046,84.717,33.597z" fill="#f1f2f3" transform="scale(0.98)" style="transform:matrix(0.98, 0, 0, 0.98, 0, 0);animation-play-state:paused" ></path></g>
<g transform="matrix(1,0,0,1,1491.3363037109375,685.9705810546875)" style="transform:matrix(1, 0, 0, 1, 1491.34, 685.971);animation-play-state:paused" ><path d="M84.717,33.597c0.791-2.503,1.186-5.138,1.186-7.773C85.903,11.594,74.308,0,60.079,0 c-9.881,0-18.445,5.534-22.793,13.702c-1.581-0.527-3.426-0.791-5.138-0.791c-9.486,0-17.128,7.642-17.128,17.128 c0,1.186,0.132,2.372,0.395,3.426C6.719,34.783,0,42.424,0,51.515C0,61.66,8.169,69.829,18.314,69.829h63.373 C91.831,69.829,100,61.66,100,51.515C99.868,42.556,93.281,35.046,84.717,33.597z" fill="#f1f2f3" transform="scale(0.98)" style="transform:matrix(0.98, 0, 0, 0.98, 0, 0);animation-play-state:paused" ></path></g>
<g transform="matrix(1,0,0,1,472.73638916015625,1095.216796875)" style="transform:matrix(1, 0, 0, 1, 472.736, 1095.22);animation-play-state:paused" ><path d="M84.717,33.597c0.791-2.503,1.186-5.138,1.186-7.773C85.903,11.594,74.308,0,60.079,0 c-9.881,0-18.445,5.534-22.793,13.702c-1.581-0.527-3.426-0.791-5.138-0.791c-9.486,0-17.128,7.642-17.128,17.128 c0,1.186,0.132,2.372,0.395,3.426C6.719,34.783,0,42.424,0,51.515C0,61.66,8.169,69.829,18.314,69.829h63.373 C91.831,69.829,100,61.66,100,51.515C99.868,42.556,93.281,35.046,84.717,33.597z" fill="#f1f2f3" transform="scale(0.98)" style="transform:matrix(0.98, 0, 0, 0.98, 0, 0);animation-play-state:paused" ></path></g>
<g transform="matrix(1,0,0,1,2575.354248046875,676.2400512695312)" style="transform:matrix(1, 0, 0, 1, 2575.35, 676.24);animation-play-state:paused" ><path d="M84.717,33.597c0.791-2.503,1.186-5.138,1.186-7.773C85.903,11.594,74.308,0,60.079,0 c-9.881,0-18.445,5.534-22.793,13.702c-1.581-0.527-3.426-0.791-5.138-0.791c-9.486,0-17.128,7.642-17.128,17.128 c0,1.186,0.132,2.372,0.395,3.426C6.719,34.783,0,42.424,0,51.515C0,61.66,8.169,69.829,18.314,69.829h63.373 C91.831,69.829,100,61.66,100,51.515C99.868,42.556,93.281,35.046,84.717,33.597z" fill="#f1f2f3" transform="scale(0.98)" style="transform:matrix(0.98, 0, 0, 0.98, 0, 0);animation-play-state:paused" ></path></g>
<g transform="matrix(1,0,0,1,2052.41845703125,1279.4451904296875)" style="transform:matrix(1, 0, 0, 1, 2052.42, 1279.45);animation-play-state:paused" ><path d="M84.717,33.597c0.791-2.503,1.186-5.138,1.186-7.773C85.903,11.594,74.308,0,60.079,0 c-9.881,0-18.445,5.534-22.793,13.702c-1.581-0.527-3.426-0.791-5.138-0.791c-9.486,0-17.128,7.642-17.128,17.128 c0,1.186,0.132,2.372,0.395,3.426C6.719,34.783,0,42.424,0,51.515C0,61.66,8.169,69.829,18.314,69.829h63.373 C91.831,69.829,100,61.66,100,51.515C99.868,42.556,93.281,35.046,84.717,33.597z" fill="#f1f2f3" transform="scale(0.98)" style="transform:matrix(0.98, 0, 0, 0.98, 0, 0);animation-play-state:paused" ></path></g>
<g transform="matrix(1,0,0,1,1408.541015625,1972.890625)" style="transform:matrix(1, 0, 0, 1, 1408.54, 1972.89);animation-play-state:paused" ><path d="M84.717,33.597c0.791-2.503,1.186-5.138,1.186-7.773C85.903,11.594,74.308,0,60.079,0 c-9.881,0-18.445,5.534-22.793,13.702c-1.581-0.527-3.426-0.791-5.138-0.791c-9.486,0-17.128,7.642-17.128,17.128 c0,1.186,0.132,2.372,0.395,3.426C6.719,34.783,0,42.424,0,51.515C0,61.66,8.169,69.829,18.314,69.829h63.373 C91.831,69.829,100,61.66,100,51.515C99.868,42.556,93.281,35.046,84.717,33.597z" fill="#f1f2f3" transform="scale(0.98)" style="transform:matrix(0.98, 0, 0, 0.98, 0, 0);animation-play-state:paused" ></path></g>
<g transform="matrix(1,0,0,1,904.1820678710938,97.81847381591797)" style="transform:matrix(1, 0, 0, 1, 904.182, 97.8185);animation-play-state:paused" ><path d="M84.717,33.597c0.791-2.503,1.186-5.138,1.186-7.773C85.903,11.594,74.308,0,60.079,0 c-9.881,0-18.445,5.534-22.793,13.702c-1.581-0.527-3.426-0.791-5.138-0.791c-9.486,0-17.128,7.642-17.128,17.128 c0,1.186,0.132,2.372,0.395,3.426C6.719,34.783,0,42.424,0,51.515C0,61.66,8.169,69.829,18.314,69.829h63.373 C91.831,69.829,100,61.66,100,51.515C99.868,42.556,93.281,35.046,84.717,33.597z" fill="#f1f2f3" transform="scale(0.98)" style="transform:matrix(0.98, 0, 0, 0.98, 0, 0);animation-play-state:paused" ></path></g>
<g transform="matrix(1,0,0,1,876.523193359375,985.7801513671875)" style="transform:matrix(1, 0, 0, 1, 876.523, 985.78);animation-play-state:paused" ><path d="M84.717,33.597c0.791-2.503,1.186-5.138,1.186-7.773C85.903,11.594,74.308,0,60.079,0 c-9.881,0-18.445,5.534-22.793,13.702c-1.581-0.527-3.426-0.791-5.138-0.791c-9.486,0-17.128,7.642-17.128,17.128 c0,1.186,0.132,2.372,0.395,3.426C6.719,34.783,0,42.424,0,51.515C0,61.66,8.169,69.829,18.314,69.829h63.373 C91.831,69.829,100,61.66,100,51.515C99.868,42.556,93.281,35.046,84.717,33.597z" fill="#f1f2f3" transform="scale(0.98)" style="transform:matrix(0.98, 0, 0, 0.98, 0, 0);animation-play-state:paused" ></path></g>
<g transform="matrix(1,0,0,1,2557.9365234375,778.6923217773438)" style="transform:matrix(1, 0, 0, 1, 2557.94, 778.692);animation-play-state:paused" ><path d="M84.717,33.597c0.791-2.503,1.186-5.138,1.186-7.773C85.903,11.594,74.308,0,60.079,0 c-9.881,0-18.445,5.534-22.793,13.702c-1.581-0.527-3.426-0.791-5.138-0.791c-9.486,0-17.128,7.642-17.128,17.128 c0,1.186,0.132,2.372,0.395,3.426C6.719,34.783,0,42.424,0,51.515C0,61.66,8.169,69.829,18.314,69.829h63.373 C91.831,69.829,100,61.66,100,51.515C99.868,42.556,93.281,35.046,84.717,33.597z" fill="#f1f2f3" transform="scale(0.98)" style="transform:matrix(0.98, 0, 0, 0.98, 0, 0);animation-play-state:paused" ></path></g>
<g transform="matrix(1,0,0,1,1350.50390625,1741.440673828125)" style="transform:matrix(1, 0, 0, 1, 1350.5, 1741.44);animation-play-state:paused" ><path d="M84.717,33.597c0.791-2.503,1.186-5.138,1.186-7.773C85.903,11.594,74.308,0,60.079,0 c-9.881,0-18.445,5.534-22.793,13.702c-1.581-0.527-3.426-0.791-5.138-0.791c-9.486,0-17.128,7.642-17.128,17.128 c0,1.186,0.132,2.372,0.395,3.426C6.719,34.783,0,42.424,0,51.515C0,61.66,8.169,69.829,18.314,69.829h63.373 C91.831,69.829,100,61.66,100,51.515C99.868,42.556,93.281,35.046,84.717,33.597z" fill="#f1f2f3" transform="scale(0.98)" style="transform:matrix(0.98, 0, 0, 0.98, 0, 0);animation-play-state:paused" ></path></g>
<g transform="matrix(1,0,0,1,2925.738525390625,1797.6036376953125)" style="transform:matrix(1, 0, 0, 1, 2925.74, 1797.6);animation-play-state:paused" ><path d="M84.717,33.597c0.791-2.503,1.186-5.138,1.186-7.773C85.903,11.594,74.308,0,60.079,0 c-9.881,0-18.445,5.534-22.793,13.702c-1.581-0.527-3.426-0.791-5.138-0.791c-9.486,0-17.128,7.642-17.128,17.128 c0,1.186,0.132,2.372,0.395,3.426C6.719,34.783,0,42.424,0,51.515C0,61.66,8.169,69.829,18.314,69.829h63.373 C91.831,69.829,100,61.66,100,51.515C99.868,42.556,93.281,35.046,84.717,33.597z" fill="#f1f2f3" transform="scale(0.98)" style="transform:matrix(0.98, 0, 0, 0.98, 0, 0);animation-play-state:paused" ></path></g>
<g transform="matrix(1,0,0,1,576.966064453125,1780.6812744140625)" style="transform:matrix(1, 0, 0, 1, 576.966, 1780.68);animation-play-state:paused" ><path d="M84.717,33.597c0.791-2.503,1.186-5.138,1.186-7.773C85.903,11.594,74.308,0,60.079,0 c-9.881,0-18.445,5.534-22.793,13.702c-1.581-0.527-3.426-0.791-5.138-0.791c-9.486,0-17.128,7.642-17.128,17.128 c0,1.186,0.132,2.372,0.395,3.426C6.719,34.783,0,42.424,0,51.515C0,61.66,8.169,69.829,18.314,69.829h63.373 C91.831,69.829,100,61.66,100,51.515C99.868,42.556,93.281,35.046,84.717,33.597z" fill="#f1f2f3" transform="scale(0.98)" style="transform:matrix(0.98, 0, 0, 0.98, 0, 0);animation-play-state:paused" ></path></g>
<g transform="matrix(1,0,0,1,1838.84716796875,978.5704956054688)" style="transform:matrix(1, 0, 0, 1, 1838.85, 978.57);animation-play-state:paused" ><path d="M84.717,33.597c0.791-2.503,1.186-5.138,1.186-7.773C85.903,11.594,74.308,0,60.079,0 c-9.881,0-18.445,5.534-22.793,13.702c-1.581-0.527-3.426-0.791-5.138-0.791c-9.486,0-17.128,7.642-17.128,17.128 c0,1.186,0.132,2.372,0.395,3.426C6.719,34.783,0,42.424,0,51.515C0,61.66,8.169,69.829,18.314,69.829h63.373 C91.831,69.829,100,61.66,100,51.515C99.868,42.556,93.281,35.046,84.717,33.597z" fill="#f1f2f3" transform="scale(0.98)" style="transform:matrix(0.98, 0, 0, 0.98, 0, 0);animation-play-state:paused" ></path></g>
<g transform="matrix(1,0,0,1,129.34201049804688,1527.8009033203125)" style="transform:matrix(1, 0, 0, 1, 129.342, 1527.8);animation-play-state:paused" ><path d="M84.717,33.597c0.791-2.503,1.186-5.138,1.186-7.773C85.903,11.594,74.308,0,60.079,0 c-9.881,0-18.445,5.534-22.793,13.702c-1.581-0.527-3.426-0.791-5.138-0.791c-9.486,0-17.128,7.642-17.128,17.128 c0,1.186,0.132,2.372,0.395,3.426C6.719,34.783,0,42.424,0,51.515C0,61.66,8.169,69.829,18.314,69.829h63.373 C91.831,69.829,100,61.66,100,51.515C99.868,42.556,93.281,35.046,84.717,33.597z" fill="#f1f2f3" transform="scale(0.98)" style="transform:matrix(0.98, 0, 0, 0.98, 0, 0);animation-play-state:paused" ></path></g>
<g transform="matrix(1,0,0,1,2330.77880859375,1742.9603271484375)" style="transform:matrix(1, 0, 0, 1, 2330.78, 1742.96);animation-play-state:paused" ><path d="M84.717,33.597c0.791-2.503,1.186-5.138,1.186-7.773C85.903,11.594,74.308,0,60.079,0 c-9.881,0-18.445,5.534-22.793,13.702c-1.581-0.527-3.426-0.791-5.138-0.791c-9.486,0-17.128,7.642-17.128,17.128 c0,1.186,0.132,2.372,0.395,3.426C6.719,34.783,0,42.424,0,51.515C0,61.66,8.169,69.829,18.314,69.829h63.373 C91.831,69.829,100,61.66,100,51.515C99.868,42.556,93.281,35.046,84.717,33.597z" fill="#86b1ff" transform="scale(1.1900000000000002)" style="transform:matrix(1.19, 0, 0, 1.19, 0, 0);animation-play-state:paused" ></path></g>
<g transform="matrix(1,0,0,1,2252.66748046875,597.8898315429688)" style="transform:matrix(1, 0, 0, 1, 2252.67, 597.89);animation-play-state:paused" ><path d="M84.717,33.597c0.791-2.503,1.186-5.138,1.186-7.773C85.903,11.594,74.308,0,60.079,0 c-9.881,0-18.445,5.534-22.793,13.702c-1.581-0.527-3.426-0.791-5.138-0.791c-9.486,0-17.128,7.642-17.128,17.128 c0,1.186,0.132,2.372,0.395,3.426C6.719,34.783,0,42.424,0,51.515C0,61.66,8.169,69.829,18.314,69.829h63.373 C91.831,69.829,100,61.66,100,51.515C99.868,42.556,93.281,35.046,84.717,33.597z" fill="#86b1ff" transform="scale(1.1900000000000002)" style="transform:matrix(1.19, 0, 0, 1.19, 0, 0);animation-play-state:paused" ></path></g>
<g transform="matrix(1,0,0,1,2887.375244140625,91.93797302246094)" style="transform:matrix(1, 0, 0, 1, 2887.38, 91.938);animation-play-state:paused" ><path d="M84.717,33.597c0.791-2.503,1.186-5.138,1.186-7.773C85.903,11.594,74.308,0,60.079,0 c-9.881,0-18.445,5.534-22.793,13.702c-1.581-0.527-3.426-0.791-5.138-0.791c-9.486,0-17.128,7.642-17.128,17.128 c0,1.186,0.132,2.372,0.395,3.426C6.719,34.783,0,42.424,0,51.515C0,61.66,8.169,69.829,18.314,69.829h63.373 C91.831,69.829,100,61.66,100,51.515C99.868,42.556,93.281,35.046,84.717,33.597z" fill="#86b1ff" transform="scale(1.1900000000000002)" style="transform:matrix(1.19, 0, 0, 1.19, 0, 0);animation-play-state:paused" ></path></g>
<g transform="matrix(1,0,0,1,1650.1824951171875,1714.137939453125)" style="transform:matrix(1, 0, 0, 1, 1650.18, 1714.14);animation-play-state:paused" ><path d="M84.717,33.597c0.791-2.503,1.186-5.138,1.186-7.773C85.903,11.594,74.308,0,60.079,0 c-9.881,0-18.445,5.534-22.793,13.702c-1.581-0.527-3.426-0.791-5.138-0.791c-9.486,0-17.128,7.642-17.128,17.128 c0,1.186,0.132,2.372,0.395,3.426C6.719,34.783,0,42.424,0,51.515C0,61.66,8.169,69.829,18.314,69.829h63.373 C91.831,69.829,100,61.66,100,51.515C99.868,42.556,93.281,35.046,84.717,33.597z" fill="#86b1ff" transform="scale(1.1900000000000002)" style="transform:matrix(1.19, 0, 0, 1.19, 0, 0);animation-play-state:paused" ></path></g>
<g transform="matrix(1,0,0,1,1811.94970703125,994.310791015625)" style="transform:matrix(1, 0, 0, 1, 1811.95, 994.311);animation-play-state:paused" ><path d="M84.717,33.597c0.791-2.503,1.186-5.138,1.186-7.773C85.903,11.594,74.308,0,60.079,0 c-9.881,0-18.445,5.534-22.793,13.702c-1.581-0.527-3.426-0.791-5.138-0.791c-9.486,0-17.128,7.642-17.128,17.128 c0,1.186,0.132,2.372,0.395,3.426C6.719,34.783,0,42.424,0,51.515C0,61.66,8.169,69.829,18.314,69.829h63.373 C91.831,69.829,100,61.66,100,51.515C99.868,42.556,93.281,35.046,84.717,33.597z" fill="#86b1ff" transform="scale(1.1900000000000002)" style="transform:matrix(1.19, 0, 0, 1.19, 0, 0);animation-play-state:paused" ></path></g>
<g transform="matrix(1,0,0,1,2544.01611328125,51.2491455078125)" style="transform:matrix(1, 0, 0, 1, 2544.02, 51.2491);animation-play-state:paused" ><path d="M84.717,33.597c0.791-2.503,1.186-5.138,1.186-7.773C85.903,11.594,74.308,0,60.079,0 c-9.881,0-18.445,5.534-22.793,13.702c-1.581-0.527-3.426-0.791-5.138-0.791c-9.486,0-17.128,7.642-17.128,17.128 c0,1.186,0.132,2.372,0.395,3.426C6.719,34.783,0,42.424,0,51.515C0,61.66,8.169,69.829,18.314,69.829h63.373 C91.831,69.829,100,61.66,100,51.515C99.868,42.556,93.281,35.046,84.717,33.597z" fill="#86b1ff" transform="scale(1.1900000000000002)" style="transform:matrix(1.19, 0, 0, 1.19, 0, 0);animation-play-state:paused" ></path></g>
<g transform="matrix(1,0,0,1,2887.470703125,746.72412109375)" style="transform:matrix(1, 0, 0, 1, 2887.47, 746.724);animation-play-state:paused" ><path d="M84.717,33.597c0.791-2.503,1.186-5.138,1.186-7.773C85.903,11.594,74.308,0,60.079,0 c-9.881,0-18.445,5.534-22.793,13.702c-1.581-0.527-3.426-0.791-5.138-0.791c-9.486,0-17.128,7.642-17.128,17.128 c0,1.186,0.132,2.372,0.395,3.426C6.719,34.783,0,42.424,0,51.515C0,61.66,8.169,69.829,18.314,69.829h63.373 C91.831,69.829,100,61.66,100,51.515C99.868,42.556,93.281,35.046,84.717,33.597z" fill="#86b1ff" transform="scale(1.1900000000000002)" style="transform:matrix(1.19, 0, 0, 1.19, 0, 0);animation-play-state:paused" ></path></g>
<g transform="matrix(1,0,0,1,1598.462158203125,1570.89111328125)" style="transform:matrix(1, 0, 0, 1, 1598.46, 1570.89);animation-play-state:paused" ><path d="M84.717,33.597c0.791-2.503,1.186-5.138,1.186-7.773C85.903,11.594,74.308,0,60.079,0 c-9.881,0-18.445,5.534-22.793,13.702c-1.581-0.527-3.426-0.791-5.138-0.791c-9.486,0-17.128,7.642-17.128,17.128 c0,1.186,0.132,2.372,0.395,3.426C6.719,34.783,0,42.424,0,51.515C0,61.66,8.169,69.829,18.314,69.829h63.373 C91.831,69.829,100,61.66,100,51.515C99.868,42.556,93.281,35.046,84.717,33.597z" fill="#86b1ff" transform="scale(1.1900000000000002)" style="transform:matrix(1.19, 0, 0, 1.19, 0, 0);animation-play-state:paused" ></path></g>
<g transform="matrix(1,0,0,1,2134.36767578125,241.82958984375)" style="transform:matrix(1, 0, 0, 1, 2134.37, 241.83);animation-play-state:paused" ><path d="M84.717,33.597c0.791-2.503,1.186-5.138,1.186-7.773C85.903,11.594,74.308,0,60.079,0 c-9.881,0-18.445,5.534-22.793,13.702c-1.581-0.527-3.426-0.791-5.138-0.791c-9.486,0-17.128,7.642-17.128,17.128 c0,1.186,0.132,2.372,0.395,3.426C6.719,34.783,0,42.424,0,51.515C0,61.66,8.169,69.829,18.314,69.829h63.373 C91.831,69.829,100,61.66,100,51.515C99.868,42.556,93.281,35.046,84.717,33.597z" fill="#86b1ff" transform="scale(1.1900000000000002)" style="transform:matrix(1.19, 0, 0, 1.19, 0, 0);animation-play-state:paused" ></path></g>
<g transform="matrix(1,0,0,1,332.130126953125,1113.7384033203125)" style="transform:matrix(1, 0, 0, 1, 332.13, 1113.74);animation-play-state:paused" ><path d="M84.717,33.597c0.791-2.503,1.186-5.138,1.186-7.773C85.903,11.594,74.308,0,60.079,0 c-9.881,0-18.445,5.534-22.793,13.702c-1.581-0.527-3.426-0.791-5.138-0.791c-9.486,0-17.128,7.642-17.128,17.128 c0,1.186,0.132,2.372,0.395,3.426C6.719,34.783,0,42.424,0,51.515C0,61.66,8.169,69.829,18.314,69.829h63.373 C91.831,69.829,100,61.66,100,51.515C99.868,42.556,93.281,35.046,84.717,33.597z" fill="#86b1ff" transform="scale(1.1900000000000002)" style="transform:matrix(1.19, 0, 0, 1.19, 0, 0);animation-play-state:paused" ></path></g>
<g transform="matrix(1,0,0,1,2111.7890625,899.7167358398438)" style="transform:matrix(1, 0, 0, 1, 2111.79, 899.717);animation-play-state:paused" ><path d="M84.717,33.597c0.791-2.503,1.186-5.138,1.186-7.773C85.903,11.594,74.308,0,60.079,0 c-9.881,0-18.445,5.534-22.793,13.702c-1.581-0.527-3.426-0.791-5.138-0.791c-9.486,0-17.128,7.642-17.128,17.128 c0,1.186,0.132,2.372,0.395,3.426C6.719,34.783,0,42.424,0,51.515C0,61.66,8.169,69.829,18.314,69.829h63.373 C91.831,69.829,100,61.66,100,51.515C99.868,42.556,93.281,35.046,84.717,33.597z" fill="#86b1ff" transform="scale(1.1900000000000002)" style="transform:matrix(1.19, 0, 0, 1.19, 0, 0);animation-play-state:paused" ></path></g>
<g transform="matrix(1,0,0,1,62.14680480957031,1932.6644287109375)" style="transform:matrix(1, 0, 0, 1, 62.1468, 1932.66);animation-play-state:paused" ><path d="M84.717,33.597c0.791-2.503,1.186-5.138,1.186-7.773C85.903,11.594,74.308,0,60.079,0 c-9.881,0-18.445,5.534-22.793,13.702c-1.581-0.527-3.426-0.791-5.138-0.791c-9.486,0-17.128,7.642-17.128,17.128 c0,1.186,0.132,2.372,0.395,3.426C6.719,34.783,0,42.424,0,51.515C0,61.66,8.169,69.829,18.314,69.829h63.373 C91.831,69.829,100,61.66,100,51.515C99.868,42.556,93.281,35.046,84.717,33.597z" fill="#86b1ff" transform="scale(1.1900000000000002)" style="transform:matrix(1.19, 0, 0, 1.19, 0, 0);animation-play-state:paused" ></path></g>
<g transform="matrix(1,0,0,1,2656.3037109375,128.73529052734375)" style="transform:matrix(1, 0, 0, 1, 2656.3, 128.735);animation-play-state:paused" ><path d="M84.717,33.597c0.791-2.503,1.186-5.138,1.186-7.773C85.903,11.594,74.308,0,60.079,0 c-9.881,0-18.445,5.534-22.793,13.702c-1.581-0.527-3.426-0.791-5.138-0.791c-9.486,0-17.128,7.642-17.128,17.128 c0,1.186,0.132,2.372,0.395,3.426C6.719,34.783,0,42.424,0,51.515C0,61.66,8.169,69.829,18.314,69.829h63.373 C91.831,69.829,100,61.66,100,51.515C99.868,42.556,93.281,35.046,84.717,33.597z" fill="#86b1ff" transform="scale(1.1900000000000002)" style="transform:matrix(1.19, 0, 0, 1.19, 0, 0);animation-play-state:paused" ></path></g>
<g transform="matrix(1,0,0,1,2910.167236328125,734.5690307617188)" style="transform:matrix(1, 0, 0, 1, 2910.17, 734.569);animation-play-state:paused" ><path d="M84.717,33.597c0.791-2.503,1.186-5.138,1.186-7.773C85.903,11.594,74.308,0,60.079,0 c-9.881,0-18.445,5.534-22.793,13.702c-1.581-0.527-3.426-0.791-5.138-0.791c-9.486,0-17.128,7.642-17.128,17.128 c0,1.186,0.132,2.372,0.395,3.426C6.719,34.783,0,42.424,0,51.515C0,61.66,8.169,69.829,18.314,69.829h63.373 C91.831,69.829,100,61.66,100,51.515C99.868,42.556,93.281,35.046,84.717,33.597z" fill="#86b1ff" transform="scale(1.1900000000000002)" style="transform:matrix(1.19, 0, 0, 1.19, 0, 0);animation-play-state:paused" ></path></g>
<g transform="matrix(1,0,0,1,7.589271545410156,741.3590087890625)" style="transform:matrix(1, 0, 0, 1, 7.58927, 741.359);animation-play-state:paused" ><path d="M84.717,33.597c0.791-2.503,1.186-5.138,1.186-7.773C85.903,11.594,74.308,0,60.079,0 c-9.881,0-18.445,5.534-22.793,13.702c-1.581-0.527-3.426-0.791-5.138-0.791c-9.486,0-17.128,7.642-17.128,17.128 c0,1.186,0.132,2.372,0.395,3.426C6.719,34.783,0,42.424,0,51.515C0,61.66,8.169,69.829,18.314,69.829h63.373 C91.831,69.829,100,61.66,100,51.515C99.868,42.556,93.281,35.046,84.717,33.597z" fill="#0056f5" transform="scale(1.4000000000000001)" style="transform:matrix(1.4, 0, 0, 1.4, 0, 0);animation-play-state:paused" ></path></g>
<g transform="matrix(1,0,0,1,2545.4755859375,731.2095336914062)" style="transform:matrix(1, 0, 0, 1, 2545.48, 731.21);animation-play-state:paused" ><path d="M84.717,33.597c0.791-2.503,1.186-5.138,1.186-7.773C85.903,11.594,74.308,0,60.079,0 c-9.881,0-18.445,5.534-22.793,13.702c-1.581-0.527-3.426-0.791-5.138-0.791c-9.486,0-17.128,7.642-17.128,17.128 c0,1.186,0.132,2.372,0.395,3.426C6.719,34.783,0,42.424,0,51.515C0,61.66,8.169,69.829,18.314,69.829h63.373 C91.831,69.829,100,61.66,100,51.515C99.868,42.556,93.281,35.046,84.717,33.597z" fill="#0056f5" transform="scale(1.4000000000000001)" style="transform:matrix(1.4, 0, 0, 1.4, 0, 0);animation-play-state:paused" ></path></g>
<g transform="matrix(1,0,0,1,1997.597900390625,980.8409423828125)" style="transform:matrix(1, 0, 0, 1, 1997.6, 980.841);animation-play-state:paused" ><path d="M84.717,33.597c0.791-2.503,1.186-5.138,1.186-7.773C85.903,11.594,74.308,0,60.079,0 c-9.881,0-18.445,5.534-22.793,13.702c-1.581-0.527-3.426-0.791-5.138-0.791c-9.486,0-17.128,7.642-17.128,17.128 c0,1.186,0.132,2.372,0.395,3.426C6.719,34.783,0,42.424,0,51.515C0,61.66,8.169,69.829,18.314,69.829h63.373 C91.831,69.829,100,61.66,100,51.515C99.868,42.556,93.281,35.046,84.717,33.597z" fill="#0056f5" transform="scale(1.4000000000000001)" style="transform:matrix(1.4, 0, 0, 1.4, 0, 0);animation-play-state:paused" ></path></g>
<g transform="matrix(1,0,0,1,923.8670654296875,1482.805419921875)" style="transform:matrix(1, 0, 0, 1, 923.867, 1482.81);animation-play-state:paused" ><path d="M84.717,33.597c0.791-2.503,1.186-5.138,1.186-7.773C85.903,11.594,74.308,0,60.079,0 c-9.881,0-18.445,5.534-22.793,13.702c-1.581-0.527-3.426-0.791-5.138-0.791c-9.486,0-17.128,7.642-17.128,17.128 c0,1.186,0.132,2.372,0.395,3.426C6.719,34.783,0,42.424,0,51.515C0,61.66,8.169,69.829,18.314,69.829h63.373 C91.831,69.829,100,61.66,100,51.515C99.868,42.556,93.281,35.046,84.717,33.597z" fill="#0056f5" transform="scale(1.4000000000000001)" style="transform:matrix(1.4, 0, 0, 1.4, 0, 0);animation-play-state:paused" ></path></g>
<g transform="matrix(1,0,0,1,1169.40283203125,339.00189208984375)" style="transform:matrix(1, 0, 0, 1, 1169.4, 339.002);animation-play-state:paused" ><path d="M84.717,33.597c0.791-2.503,1.186-5.138,1.186-7.773C85.903,11.594,74.308,0,60.079,0 c-9.881,0-18.445,5.534-22.793,13.702c-1.581-0.527-3.426-0.791-5.138-0.791c-9.486,0-17.128,7.642-17.128,17.128 c0,1.186,0.132,2.372,0.395,3.426C6.719,34.783,0,42.424,0,51.515C0,61.66,8.169,69.829,18.314,69.829h63.373 C91.831,69.829,100,61.66,100,51.515C99.868,42.556,93.281,35.046,84.717,33.597z" fill="#0056f5" transform="scale(1.4000000000000001)" style="transform:matrix(1.4, 0, 0, 1.4, 0, 0);animation-play-state:paused" ></path></g>
<g transform="matrix(1,0,0,1,194.94439697265625,673.010986328125)" style="transform:matrix(1, 0, 0, 1, 194.944, 673.011);animation-play-state:paused" ><path d="M84.717,33.597c0.791-2.503,1.186-5.138,1.186-7.773C85.903,11.594,74.308,0,60.079,0 c-9.881,0-18.445,5.534-22.793,13.702c-1.581-0.527-3.426-0.791-5.138-0.791c-9.486,0-17.128,7.642-17.128,17.128 c0,1.186,0.132,2.372,0.395,3.426C6.719,34.783,0,42.424,0,51.515C0,61.66,8.169,69.829,18.314,69.829h63.373 C91.831,69.829,100,61.66,100,51.515C99.868,42.556,93.281,35.046,84.717,33.597z" fill="#0056f5" transform="scale(1.4000000000000001)" style="transform:matrix(1.4, 0, 0, 1.4, 0, 0);animation-play-state:paused" ></path></g>
<g transform="matrix(1,0,0,1,172.98098754882812,652.3014526367188)" style="transform:matrix(1, 0, 0, 1, 172.981, 652.301);animation-play-state:paused" ><path d="M84.717,33.597c0.791-2.503,1.186-5.138,1.186-7.773C85.903,11.594,74.308,0,60.079,0 c-9.881,0-18.445,5.534-22.793,13.702c-1.581-0.527-3.426-0.791-5.138-0.791c-9.486,0-17.128,7.642-17.128,17.128 c0,1.186,0.132,2.372,0.395,3.426C6.719,34.783,0,42.424,0,51.515C0,61.66,8.169,69.829,18.314,69.829h63.373 C91.831,69.829,100,61.66,100,51.515C99.868,42.556,93.281,35.046,84.717,33.597z" fill="#0056f5" transform="scale(1.4000000000000001)" style="transform:matrix(1.4, 0, 0, 1.4, 0, 0);animation-play-state:paused" ></path></g>
<g transform="matrix(1,0,0,1,1196.068115234375,1063.673583984375)" style="transform:matrix(1, 0, 0, 1, 1196.07, 1063.67);animation-play-state:paused" ><path d="M84.717,33.597c0.791-2.503,1.186-5.138,1.186-7.773C85.903,11.594,74.308,0,60.079,0 c-9.881,0-18.445,5.534-22.793,13.702c-1.581-0.527-3.426-0.791-5.138-0.791c-9.486,0-17.128,7.642-17.128,17.128 c0,1.186,0.132,2.372,0.395,3.426C6.719,34.783,0,42.424,0,51.515C0,61.66,8.169,69.829,18.314,69.829h63.373 C91.831,69.829,100,61.66,100,51.515C99.868,42.556,93.281,35.046,84.717,33.597z" fill="#0056f5" transform="scale(1.4000000000000001)" style="transform:matrix(1.4, 0, 0, 1.4, 0, 0);animation-play-state:paused" ></path></g>
<g transform="matrix(1,0,0,1,1614.0377197265625,1253.096435546875)" style="transform:matrix(1, 0, 0, 1, 1614.04, 1253.1);animation-play-state:paused" ><path d="M84.717,33.597c0.791-2.503,1.186-5.138,1.186-7.773C85.903,11.594,74.308,0,60.079,0 c-9.881,0-18.445,5.534-22.793,13.702c-1.581-0.527-3.426-0.791-5.138-0.791c-9.486,0-17.128,7.642-17.128,17.128 c0,1.186,0.132,2.372,0.395,3.426C6.719,34.783,0,42.424,0,51.515C0,61.66,8.169,69.829,18.314,69.829h63.373 C91.831,69.829,100,61.66,100,51.515C99.868,42.556,93.281,35.046,84.717,33.597z" fill="#0056f5" transform="scale(1.4000000000000001)" style="transform:matrix(1.4, 0, 0, 1.4, 0, 0);animation-play-state:paused" ></path></g>
<g transform="matrix(1,0,0,1,780.9080810546875,355.0508728027344)" style="transform:matrix(1, 0, 0, 1, 780.908, 355.051);animation-play-state:paused" ><path d="M84.717,33.597c0.791-2.503,1.186-5.138,1.186-7.773C85.903,11.594,74.308,0,60.079,0 c-9.881,0-18.445,5.534-22.793,13.702c-1.581-0.527-3.426-0.791-5.138-0.791c-9.486,0-17.128,7.642-17.128,17.128 c0,1.186,0.132,2.372,0.395,3.426C6.719,34.783,0,42.424,0,51.515C0,61.66,8.169,69.829,18.314,69.829h63.373 C91.831,69.829,100,61.66,100,51.515C99.868,42.556,93.281,35.046,84.717,33.597z" fill="#0056f5" transform="scale(1.4000000000000001)" style="transform:matrix(1.4, 0, 0, 1.4, 0, 0);animation-play-state:paused" ></path></g>
<g transform="matrix(1,0,0,1,230.0025634765625,1980.677001953125)" style="transform:matrix(1, 0, 0, 1, 230.003, 1980.68);animation-play-state:paused" ><path d="M84.717,33.597c0.791-2.503,1.186-5.138,1.186-7.773C85.903,11.594,74.308,0,60.079,0 c-9.881,0-18.445,5.534-22.793,13.702c-1.581-0.527-3.426-0.791-5.138-0.791c-9.486,0-17.128,7.642-17.128,17.128 c0,1.186,0.132,2.372,0.395,3.426C6.719,34.783,0,42.424,0,51.515C0,61.66,8.169,69.829,18.314,69.829h63.373 C91.831,69.829,100,61.66,100,51.515C99.868,42.556,93.281,35.046,84.717,33.597z" fill="#0056f5" transform="scale(1.4000000000000001)" style="transform:matrix(1.4, 0, 0, 1.4, 0, 0);animation-play-state:paused" ></path></g>
<g transform="matrix(1,0,0,1,2030.318603515625,1361.2254638671875)" style="transform:matrix(1, 0, 0, 1, 2030.32, 1361.23);animation-play-state:paused" ><path d="M84.717,33.597c0.791-2.503,1.186-5.138,1.186-7.773C85.903,11.594,74.308,0,60.079,0 c-9.881,0-18.445,5.534-22.793,13.702c-1.581-0.527-3.426-0.791-5.138-0.791c-9.486,0-17.128,7.642-17.128,17.128 c0,1.186,0.132,2.372,0.395,3.426C6.719,34.783,0,42.424,0,51.515C0,61.66,8.169,69.829,18.314,69.829h63.373 C91.831,69.829,100,61.66,100,51.515C99.868,42.556,93.281,35.046,84.717,33.597z" fill="#0056f5" transform="scale(1.4000000000000001)" style="transform:matrix(1.4, 0, 0, 1.4, 0, 0);animation-play-state:paused" ></path></g>
<g transform="matrix(1,0,0,1,295.4349365234375,1363.2490234375)" style="transform:matrix(1, 0, 0, 1, 295.435, 1363.25);animation-play-state:paused" ><path d="M84.717,33.597c0.791-2.503,1.186-5.138,1.186-7.773C85.903,11.594,74.308,0,60.079,0 c-9.881,0-18.445,5.534-22.793,13.702c-1.581-0.527-3.426-0.791-5.138-0.791c-9.486,0-17.128,7.642-17.128,17.128 c0,1.186,0.132,2.372,0.395,3.426C6.719,34.783,0,42.424,0,51.515C0,61.66,8.169,69.829,18.314,69.829h63.373 C91.831,69.829,100,61.66,100,51.515C99.868,42.556,93.281,35.046,84.717,33.597z" fill="#0056f5" transform="scale(1.4000000000000001)" style="transform:matrix(1.4, 0, 0, 1.4, 0, 0);animation-play-state:paused" ></path></g>
<g transform="matrix(1,0,0,1,2420.86669921875,1933.3770751953125)" style="transform:matrix(1, 0, 0, 1, 2420.87, 1933.38);animation-play-state:paused" ><path d="M84.717,33.597c0.791-2.503,1.186-5.138,1.186-7.773C85.903,11.594,74.308,0,60.079,0 c-9.881,0-18.445,5.534-22.793,13.702c-1.581-0.527-3.426-0.791-5.138-0.791c-9.486,0-17.128,7.642-17.128,17.128 c0,1.186,0.132,2.372,0.395,3.426C6.719,34.783,0,42.424,0,51.515C0,61.66,8.169,69.829,18.314,69.829h63.373 C91.831,69.829,100,61.66,100,51.515C99.868,42.556,93.281,35.046,84.717,33.597z" fill="#0056f5" transform="scale(1.4000000000000001)" style="transform:matrix(1.4, 0, 0, 1.4, 0, 0);animation-play-state:paused" ></path></g></g></svg>